<?xml version="1.0" standalone="no"?>
<!DOCTYPE svg PUBLIC "-//W3C//DTD SVG 20010904//EN"
 "http://www.w3.org/TR/2001/REC-SVG-20010904/DTD/svg10.dtd">
<svg version="1.0" xmlns="http://www.w3.org/2000/svg"
 width="300.000000pt" height="171.000000pt" viewBox="0 0 300.000000 171.000000"
 preserveAspectRatio="xMidYMid meet">
<metadata>
Created by potrace 1.10, written by Peter Selinger 2001-2011
</metadata>
<g transform="translate(0.000000,171.000000) scale(0.100000,-0.100000)"
fill="#000000" stroke="none">
<path d="M50 1493 c-41 -14 -65 -84 -38 -111 7 -7 17 -27 22 -44 l11 -33 1452
-3 1453 -2 6 24 c3 14 14 32 25 42 25 23 26 91 2 110 -43 32 -128 0 -116 -45
4 -17 -2 -20 -64 -27 -64 -6 -503 2 -511 11 -2 2 -1 9 3 14 4 8 71 9 218 5
117 -4 209 -4 206 0 -7 7 -132 15 -294 17 -111 2 -122 4 -149 26 -22 18 -36
23 -55 18 -14 -3 -170 -6 -346 -5 -771 2 -785 2 -819 -15 -21 -11 -28 -12 -32
-2 -3 10 -24 11 -87 5 -77 -8 -191 -13 -537 -23 -80 -2 -153 -6 -162 -9 -10
-2 -18 -1 -18 4 0 4 -10 7 -22 7 -54 -1 -79 4 -73 12 9 16 -47 33 -75 24z
m2214 -26 c21 -15 13 -44 -16 -53 -14 -4 -27 1 -41 14 -17 18 -18 23 -7 36 15
19 40 20 64 3z m-2163 -7 c42 -23 5 -100 -40 -85 -34 10 -45 42 -26 71 17 26
35 30 66 14z m1589 1 c0 -8 -76 -11 -274 -11 -150 0 -293 -3 -318 -6 -34 -5
-45 -3 -45 7 0 12 59 15 319 18 233 3 318 1 318 -8z m1274 -7 c22 -21 20 -47
-4 -69 -18 -17 -21 -17 -45 -1 -15 10 -25 26 -25 39 0 44 43 62 74 31z m-1946
-11 c-2 -13 -17 -20 -53 -25 -83 -11 -840 -9 -829 2 5 5 155 12 359 16 193 3
379 9 415 14 107 12 112 12 108 -7z m1162 9 c0 -9 -470 -5 -479 3 -2 3 104 5
237 5 133 0 242 -4 242 -8z m-90 -32 c0 -6 -180 -11 -495 -12 -391 -2 -495 0
-495 10 0 9 106 12 495 12 317 0 495 -4 495 -10z m780 -40 c0 -7 -79 -6 -275
2 -33 1 8 5 90 8 154 5 185 3 185 -10z m-1297 -2 c228 3 257 2 257 -12 0 -14
58 -16 560 -16 485 0 560 -2 560 -15 0 -12 -183 -14 -1445 -13 -1192 1 -1445
4 -1445 15 0 11 107 13 592 13 325 0 589 3 586 6 -3 3 -183 5 -399 4 -216 0
-389 3 -385 7 12 13 363 21 621 14 132 -3 356 -4 498 -3z m946 2 c-21 -12
-659 -22 -659 -10 0 10 117 15 455 18 137 1 214 -2 204 -8z"/>
<path d="M61 1441 c-17 -11 -7 -41 13 -41 22 0 30 20 15 36 -9 8 -19 10 -28 5z"/>
<path d="M2921 1441 c-17 -11 -7 -41 13 -41 22 0 30 20 15 36 -9 8 -19 10 -28
5z"/>
<path d="M1698 1353 c17 -2 47 -2 65 0 17 2 3 4 -33 4 -36 0 -50 -2 -32 -4z"/>
<path d="M35 1279 c4 -13 0 -27 -11 -40 -17 -19 -17 -21 3 -41 19 -18 36 -21
130 -25 139 -4 143 -6 110 -41 -15 -16 -27 -35 -27 -45 0 -9 -22 -57 -50 -108
-27 -51 -50 -95 -50 -99 0 -3 -11 -28 -24 -56 -13 -27 -30 -65 -38 -84 -9 -19
-26 -57 -38 -84 -18 -42 -20 -53 -9 -73 10 -18 20 -23 53 -23 50 1 70 15 99
70 l22 42 108 0 c59 -1 111 -1 115 -2 5 0 17 -18 27 -41 22 -49 49 -69 91 -69
28 0 64 25 64 45 0 10 -60 142 -140 310 -32 66 -65 138 -74 160 -10 22 -30 52
-47 67 -16 15 -29 28 -29 30 0 3 206 2 248 -1 20 -2 14 -17 -13 -31 -14 -7
-25 -20 -25 -29 0 -18 42 -91 78 -137 12 -16 47 -63 77 -104 l55 -75 0 -95 c0
-116 12 -140 69 -140 65 0 76 22 72 151 -2 92 0 110 13 115 15 6 127 151 154
199 28 49 28 49 58 17 28 -30 32 -32 117 -33 106 -2 110 -11 37 -84 -27 -27
-52 -62 -55 -77 -4 -18 -22 -39 -50 -58 -24 -16 -64 -53 -89 -82 -51 -58 -58
-91 -27 -127 19 -22 25 -22 245 -23 205 -1 228 0 246 17 28 25 26 76 -4 104
-13 12 -27 21 -32 20 -33 -6 -234 3 -234 10 0 6 52 63 116 128 69 70 124 135
136 160 10 23 23 45 28 48 17 11 11 61 -11 89 -23 30 -20 32 49 39 23 2 42 1
42 -2 0 -4 19 -5 43 -3 28 2 38 0 28 -6 -7 -5 -21 -7 -31 -5 -29 8 -71 -39
-66 -74 1 -17 6 -35 10 -42 4 -6 2 -27 -6 -46 -9 -27 -10 -40 -1 -54 9 -14 8
-25 -3 -47 -14 -26 -14 -32 1 -56 9 -16 13 -33 9 -39 -4 -6 -8 -52 -9 -102 -4
-142 -14 -136 231 -137 182 0 202 2 217 18 24 26 22 78 -3 100 -23 19 -27 19
-188 21 l-113 1 3 43 3 42 118 5 c110 5 120 7 138 29 22 27 23 40 7 76 -14 31
-27 34 -158 38 l-105 2 -3 29 c-2 16 0 32 5 37 4 4 70 9 145 10 149 1 158 4
172 63 6 23 2 34 -19 56 -18 18 -23 30 -15 35 6 3 214 8 462 11 430 3 453 4
471 23 17 17 18 23 7 48 l-13 28 -1450 0 c-1150 0 -1451 3 -1454 13 -9 21 -25
13 -18 -9z m2925 -57 c0 -17 -69 -18 -1460 -21 l-1460 -3 0 21 0 21 1460 0
c1392 0 1460 -1 1460 -18z m-1972 -57 c3 -3 -4 -12 -16 -21 -38 -26 -72 -61
-72 -72 0 -6 -6 -17 -12 -24 -7 -7 -26 -32 -42 -55 -16 -24 -31 -43 -35 -43
-3 0 -28 34 -55 76 -27 41 -64 87 -82 101 -38 28 -42 40 -16 45 28 5 324 0
330 -7z m182 -4 c0 -5 -8 -7 -18 -4 -10 2 -24 -3 -31 -11 -15 -18 -47 -21 -56
-6 -3 5 -20 14 -38 18 -25 7 -14 9 56 11 48 0 87 -3 87 -8z m-100 -35 c0 -6
-156 -236 -180 -266 l-20 -25 -20 25 c-11 14 -20 30 -20 36 0 6 18 38 41 70
22 33 55 80 72 106 28 41 37 47 72 51 22 2 43 4 48 5 4 1 7 0 7 -2z m-714 -43
c9 -21 66 -141 125 -266 60 -126 109 -229 109 -230 0 -1 -19 -1 -42 1 l-43 4
-119 239 c-128 259 -136 289 -76 289 24 0 32 -7 46 -37z m367 -75 c89 -133 97
-153 65 -162 -40 -10 -44 -8 -108 87 -35 50 -79 113 -98 140 l-34 47 50 0 51
0 74 -112z m797 74 l0 -37 -200 -3 -200 -4 0 41 0 41 200 0 200 0 0 -38z m512
-3 l-4 -41 -201 4 -201 4 -1 37 -2 37 206 0 207 0 -4 -41z m-1758 -99 l26 -39
-86 -173 -85 -173 -42 -6 c-23 -4 -43 -5 -45 -4 -1 1 13 33 32 71 37 75 125
267 149 327 9 20 18 37 20 37 2 0 16 -18 31 -40z m1205 13 c-8 -10 -55 -60
-106 -112 -87 -90 -94 -94 -118 -83 -14 6 -25 20 -25 29 0 10 36 55 79 101
l78 82 53 0 c48 0 51 -1 39 -17z m229 -25 l3 -38 -45 0 -46 0 0 41 0 40 43 -3
c41 -3 42 -4 45 -40z m279 -109 l2 -41 -175 4 c-188 5 -214 12 -199 57 6 20
12 21 189 21 l182 0 1 -41z m-1653 5 c12 -32 6 -54 -14 -54 -26 0 -35 22 -20
49 13 25 26 27 34 5z m499 -42 c12 -13 16 -44 19 -125 l3 -107 -42 0 -43 0 0
103 c0 77 4 108 16 125 18 27 26 27 47 4z m876 -93 l-3 -61 165 1 165 2 -4
-41 -4 -40 -202 0 -201 0 -3 100 -3 100 46 0 46 0 -2 -61z m-1316 12 l26 -40
-99 -3 c-55 -2 -100 -2 -100 0 0 1 9 21 20 42 20 39 22 40 74 40 51 0 54 -2
79 -39z m866 23 c3 -2 -10 -19 -28 -38 -25 -26 -44 -35 -83 -40 -98 -13 -35
-20 167 -18 l205 3 0 -43 0 -43 -240 3 -240 3 0 27 c0 19 18 45 68 95 65 66
68 68 107 62 21 -3 41 -8 44 -11z"/>
<path d="M2126 1132 c-23 -23 -23 -26 -10 -58 11 -25 12 -40 4 -54 -6 -12 -11
-99 -10 -221 0 -225 4 -239 64 -239 64 1 71 16 74 168 2 75 7 141 12 145 4 5
17 -4 30 -20 12 -15 36 -44 54 -63 17 -19 64 -74 104 -122 40 -48 81 -92 92
-98 29 -15 65 -12 91 9 l23 18 -34 56 c-19 31 -44 67 -56 81 -22 23 -23 33
-26 205 l-3 181 40 0 40 0 3 -217 c2 -120 5 -219 7 -222 15 -15 20 32 23 210
2 175 0 204 -15 230 -20 33 -41 42 -75 34 -44 -11 -52 -39 -54 -188 -1 -76 -4
-140 -6 -142 -2 -2 -37 39 -78 92 -131 169 -155 198 -189 220 -41 28 -73 26
-105 -5z m161 -99 c157 -198 343 -439 343 -446 0 -1 -19 -1 -41 1 -31 3 -49
12 -69 36 -38 43 -129 155 -208 256 -36 47 -86 107 -110 134 -24 28 -50 62
-58 78 l-15 28 44 0 c43 0 45 -2 114 -87z m-108 -45 l40 -43 1 -176 0 -177
-40 -4 -40 -4 0 207 c0 114 -3 214 -6 223 -10 26 3 18 45 -26z"/>
<path d="M2816 1130 c-39 -35 -45 -60 -19 -85 13 -14 14 -21 4 -37 -8 -13 -11
-75 -10 -211 1 -180 2 -193 22 -214 24 -27 63 -29 94 -5 22 17 23 22 24 219 1
152 -2 207 -11 218 -10 12 -10 21 -1 42 10 23 9 30 -6 51 -10 14 -28 31 -40
39 -19 13 -24 11 -57 -17z m80 -35 c9 -22 -15 -55 -39 -55 -47 0 -63 48 -25
74 23 16 54 7 64 -19z m4 -289 l0 -214 -40 -4 -40 -4 0 212 c0 204 1 212 19
207 11 -3 28 0 38 6 10 6 19 11 21 11 1 0 2 -96 2 -214z"/>
<path d="M289 532 c-219 -2 -238 -4 -254 -22 -13 -15 -15 -25 -8 -47 l10 -28
1453 -3 c800 -1 1457 -5 1462 -10 4 -4 4 -12 0 -17 -5 -7 -508 -9 -1459 -7
-1279 2 -1453 4 -1453 17 0 8 -4 15 -10 15 -15 0 -12 -15 10 -42 l19 -25 -29
-22 c-56 -40 -34 -113 37 -127 24 -5 35 -1 52 17 15 16 38 25 74 30 l52 6 -57
2 c-47 1 -56 4 -52 16 5 13 35 15 179 15 207 0 385 -10 385 -22 0 -4 -30 -9
-67 -9 -115 -2 -141 -16 -33 -18 78 -1 100 -5 120 -21 30 -24 58 -25 81 -4 15
14 90 16 662 17 355 1 648 5 652 9 15 15 -194 20 -718 16 -441 -2 -557 0 -557
10 0 16 1240 18 1271 2 20 -11 28 3 9 15 -18 11 -1 24 30 23 32 -1 41 -22 14
-32 -9 -4 -14 -9 -11 -13 4 -3 12 -1 19 5 12 9 110 13 512 23 52 2 81 6 70 10
-15 6 -13 8 11 10 27 2 26 3 -10 8 -22 4 -230 7 -462 6 -396 0 -423 1 -423 18
0 16 31 17 515 17 324 0 515 -4 515 -10 0 -5 -9 -14 -20 -20 -11 -6 -20 -17
-20 -25 0 -7 -10 -16 -22 -18 -19 -4 -18 -4 5 -6 23 -1 27 -5 22 -20 -4 -14 3
-24 29 -40 32 -20 37 -21 70 -7 34 14 36 18 36 60 0 39 -4 47 -30 62 -28 17
-29 19 -14 42 8 12 12 31 9 42 -3 10 0 28 7 40 11 18 10 23 -5 35 -29 21 -88
23 -802 25 -374 0 -896 2 -1160 3 -264 1 -586 1 -716 -1z m2671 -52 c0 -20 -7
-20 -1460 -20 -1453 0 -1460 0 -1460 20 0 20 7 20 1460 20 1453 0 1460 0 1460
-20z m-1130 -127 c0 -17 -47 -18 -860 -15 -754 2 -860 4 -860 17 0 13 105 15
860 15 812 0 860 -1 860 -17z m-1726 -39 c23 -22 20 -51 -8 -69 -28 -19 -49
-12 -66 20 -12 22 -11 28 5 45 22 24 48 26 69 4z m2864 4 c20 -20 14 -56 -13
-74 -24 -16 -27 -16 -45 1 -36 32 -20 85 25 85 12 0 26 -5 33 -12z m-2184 -14
c20 -8 21 -48 1 -64 -17 -14 -51 -5 -59 16 -3 9 -1 24 4 35 11 20 27 23 54 13z"/>
<path d="M53 294 c-8 -21 13 -42 28 -27 13 13 5 43 -11 43 -6 0 -13 -7 -17
-16z"/>
<path d="M2914 295 c-4 -9 -2 -21 4 -27 15 -15 44 -1 40 19 -4 23 -36 29 -44
8z"/>
<path d="M2237 263 c-32 -2 -55 -8 -52 -13 5 -9 64 -5 140 10 l40 8 -35 -1
c-19 0 -61 -2 -93 -4z"/>
</g>
</svg>
